<svg width="154" height="230" viewBox="0 0 154 230" fill="none" xmlns="http://www.w3.org/2000/svg">
<rect width="154" height="230" fill="#E5E5E5"/>
<rect width="154" height="230" rx="8" fill="#0D253F"/>
<path d="M39.0938 121H36.832L28.2422 107.852V121H25.9805V103.938H28.2422L36.8555 117.145V103.938H39.0938V121ZM42.1758 114.543C42.1758 113.301 42.418 112.184 42.9023 111.191C43.3945 110.199 44.0742 109.434 44.9414 108.895C45.8164 108.355 46.8125 108.086 47.9297 108.086C49.6562 108.086 51.0508 108.684 52.1133 109.879C53.1836 111.074 53.7188 112.664 53.7188 114.648V114.801C53.7188 116.035 53.4805 117.145 53.0039 118.129C52.5352 119.105 51.8594 119.867 50.9766 120.414C50.1016 120.961 49.0938 121.234 47.9531 121.234C46.2344 121.234 44.8398 120.637 43.7695 119.441C42.707 118.246 42.1758 116.664 42.1758 114.695V114.543ZM44.3555 114.801C44.3555 116.207 44.6797 117.336 45.3281 118.188C45.9844 119.039 46.8594 119.465 47.9531 119.465C49.0547 119.465 49.9297 119.035 50.5781 118.176C51.2266 117.309 51.5508 116.098 51.5508 114.543C51.5508 113.152 51.2188 112.027 50.5547 111.168C49.8984 110.301 49.0234 109.867 47.9297 109.867C46.8594 109.867 45.9961 110.293 45.3398 111.145C44.6836 111.996 44.3555 113.215 44.3555 114.801ZM64.9805 114.32V121H62.7305V103.938H69.0234C70.8906 103.938 72.3516 104.414 73.4062 105.367C74.4688 106.32 75 107.582 75 109.152C75 110.809 74.4805 112.086 73.4414 112.984C72.4102 113.875 70.9297 114.32 69 114.32H64.9805ZM64.9805 112.48H69.0234C70.2266 112.48 71.1484 112.199 71.7891 111.637C72.4297 111.066 72.75 110.246 72.75 109.176C72.75 108.16 72.4297 107.348 71.7891 106.738C71.1484 106.129 70.2695 105.812 69.1523 105.789H64.9805V112.48ZM76.793 114.543C76.793 113.301 77.0352 112.184 77.5195 111.191C78.0117 110.199 78.6914 109.434 79.5586 108.895C80.4336 108.355 81.4297 108.086 82.5469 108.086C84.2734 108.086 85.668 108.684 86.7305 109.879C87.8008 111.074 88.3359 112.664 88.3359 114.648V114.801C88.3359 116.035 88.0977 117.145 87.6211 118.129C87.1523 119.105 86.4766 119.867 85.5938 120.414C84.7188 120.961 83.7109 121.234 82.5703 121.234C80.8516 121.234 79.457 120.637 78.3867 119.441C77.3242 118.246 76.793 116.664 76.793 114.695V114.543ZM78.9727 114.801C78.9727 116.207 79.2969 117.336 79.9453 118.188C80.6016 119.039 81.4766 119.465 82.5703 119.465C83.6719 119.465 84.5469 119.035 85.1953 118.176C85.8438 117.309 86.168 116.098 86.168 114.543C86.168 113.152 85.8359 112.027 85.1719 111.168C84.5156 110.301 83.6406 109.867 82.5469 109.867C81.4766 109.867 80.6133 110.293 79.957 111.145C79.3008 111.996 78.9727 113.215 78.9727 114.801ZM98.4375 117.637C98.4375 117.051 98.2148 116.598 97.7695 116.277C97.332 115.949 96.5625 115.668 95.4609 115.434C94.3672 115.199 93.4961 114.918 92.8477 114.59C92.207 114.262 91.7305 113.871 91.418 113.418C91.1133 112.965 90.9609 112.426 90.9609 111.801C90.9609 110.762 91.3984 109.883 92.2734 109.164C93.1562 108.445 94.2812 108.086 95.6484 108.086C97.0859 108.086 98.25 108.457 99.1406 109.199C100.039 109.941 100.488 110.891 100.488 112.047H98.3086C98.3086 111.453 98.0547 110.941 97.5469 110.512C97.0469 110.082 96.4141 109.867 95.6484 109.867C94.8594 109.867 94.2422 110.039 93.7969 110.383C93.3516 110.727 93.1289 111.176 93.1289 111.73C93.1289 112.254 93.3359 112.648 93.75 112.914C94.1641 113.18 94.9102 113.434 95.9883 113.676C97.0742 113.918 97.9531 114.207 98.625 114.543C99.2969 114.879 99.793 115.285 100.113 115.762C100.441 116.23 100.605 116.805 100.605 117.484C100.605 118.617 100.152 119.527 99.2461 120.215C98.3398 120.895 97.1641 121.234 95.7188 121.234C94.7031 121.234 93.8047 121.055 93.0234 120.695C92.2422 120.336 91.6289 119.836 91.1836 119.195C90.7461 118.547 90.5273 117.848 90.5273 117.098H92.6953C92.7344 117.824 93.0234 118.402 93.5625 118.832C94.1094 119.254 94.8281 119.465 95.7188 119.465C96.5391 119.465 97.1953 119.301 97.6875 118.973C98.1875 118.637 98.4375 118.191 98.4375 117.637ZM106.371 105.25V108.32H108.738V109.996H106.371V117.859C106.371 118.367 106.477 118.75 106.688 119.008C106.898 119.258 107.258 119.383 107.766 119.383C108.016 119.383 108.359 119.336 108.797 119.242V121C108.227 121.156 107.672 121.234 107.133 121.234C106.164 121.234 105.434 120.941 104.941 120.355C104.449 119.77 104.203 118.938 104.203 117.859V109.996H101.895V108.32H104.203V105.25H106.371ZM116.543 121.234C114.824 121.234 113.426 120.672 112.348 119.547C111.27 118.414 110.73 116.902 110.73 115.012V114.613C110.73 113.355 110.969 112.234 111.445 111.25C111.93 110.258 112.602 109.484 113.461 108.93C114.328 108.367 115.266 108.086 116.273 108.086C117.922 108.086 119.203 108.629 120.117 109.715C121.031 110.801 121.488 112.355 121.488 114.379V115.281H112.898C112.93 116.531 113.293 117.543 113.988 118.316C114.691 119.082 115.582 119.465 116.66 119.465C117.426 119.465 118.074 119.309 118.605 118.996C119.137 118.684 119.602 118.27 120 117.754L121.324 118.785C120.262 120.418 118.668 121.234 116.543 121.234ZM116.273 109.867C115.398 109.867 114.664 110.188 114.07 110.828C113.477 111.461 113.109 112.352 112.969 113.5H119.32V113.336C119.258 112.234 118.961 111.383 118.43 110.781C117.898 110.172 117.18 109.867 116.273 109.867ZM130.137 110.266C129.809 110.211 129.453 110.184 129.07 110.184C127.648 110.184 126.684 110.789 126.176 112V121H124.008V108.32H126.117L126.152 109.785C126.863 108.652 127.871 108.086 129.176 108.086C129.598 108.086 129.918 108.141 130.137 108.25V110.266Z" fill="white"/>
</svg>
